<?xml version="1.0" encoding="UTF-8"?>
<svg xmlns="http://www.w3.org/2000/svg" viewBox="0 0 320 360" width="320" height="360" role="img" aria-label="Letter B">
  <defs>
    <linearGradient id="gbBg" x1="0" y1="0" x2="1" y2="1">
      <stop offset="0" stop-color="#c8def3"/>
      <stop offset="0.45" stop-color="#2f7ec4"/>
      <stop offset="1" stop-color="#1e5a96"/>
    </linearGradient>
    <linearGradient id="gbShine" x1="0" y1="0" x2="0" y2="1">
      <stop offset="0" stop-color="#ffffff" stop-opacity="0.28"/>
      <stop offset="0.55" stop-color="#ffffff" stop-opacity="0"/>
    </linearGradient>
    <radialGradient id="gbGlow" cx="30%" cy="25%" r="65%">
      <stop offset="0" stop-color="#7ec8ff" stop-opacity="0.55"/>
      <stop offset="1" stop-color="#1e5a96" stop-opacity="0"/>
    </radialGradient>
    <filter id="gbSoft" x="-20%" y="-20%" width="140%" height="140%">
      <feDropShadow dx="0" dy="6" stdDeviation="8" flood-color="#1e5a96" flood-opacity="0.35"/>
    </filter>
  </defs>
  <rect width="320" height="360" rx="28" fill="url(#gbBg)"/>
  <rect width="320" height="360" rx="28" fill="url(#gbGlow)"/>
  <rect width="320" height="360" rx="28" fill="url(#gbShine)"/>
  <!-- decorative dots -->
  <circle cx="48" cy="56" r="10" fill="#fff" opacity="0.18"/>
  <circle cx="278" cy="72" r="7" fill="#fff" opacity="0.14"/>
  <circle cx="42" cy="300" r="14" fill="#fff" opacity="0.1"/>
  <circle cx="290" cy="310" r="18" fill="#000" opacity="0.08"/>
  <!-- big letter (graphic center) -->
  <text x="148" y="155" text-anchor="middle" font-family="Segoe UI, Arial, sans-serif" font-size="150" font-weight="800" fill="#ffffff" filter="url(#gbSoft)" letter-spacing="-4">B</text>
  <text x="148" y="155" text-anchor="middle" font-family="Segoe UI, Arial, sans-serif" font-size="150" font-weight="800" fill="none" stroke="#ffffff" stroke-opacity="0.22" stroke-width="3" letter-spacing="-4">B</text>
  <!-- motif -->
  <g opacity="0.96">
        <circle cx="236" cy="268" r="30" fill="#f0a020"/>
        <path d="M206 268h60M236 238v60M212 248c15 10 33 10 48 0M212 288c15-10 33-10 48 0" fill="none" stroke="#fff" stroke-width="3.5" opacity="0.85"/>
  </g>
  <!-- bottom accent bar -->
  <rect x="0" y="348" width="320" height="12" fill="#1e5a96" opacity="0.85"/>
</svg>
