<?xml version="1.0" encoding="UTF-8"?>
<svg xmlns="http://www.w3.org/2000/svg" viewBox="0 0 850 500" width="850" height="500" role="img" aria-label="Unit 2: In The Dining Room">
  <defs><linearGradient id="sky" x1="0" y1="0" x2="0" y2="1"><stop offset="0%" stop-color="#FFE0B2"/><stop offset="100%" stop-color="#FFF8E1"/></linearGradient></defs>
    <rect width="850" height="500" fill="url(#sky)"/>
    <rect x="0" y="300" width="850" height="200" fill="#D7CCC8"/>
    <rect x="120" y="220" width="420" height="28" rx="4" fill="#8D6E63" stroke="#1A1A2E" stroke-width="2"/>
    <rect x="140" y="248" width="18" height="70" fill="#6D4C41" stroke="#1A1A2E" stroke-width="1"/>
    <rect x="500" y="248" width="18" height="70" fill="#6D4C41" stroke="#1A1A2E" stroke-width="1"/>
    <g transform="translate(280,175)">
    <rect x="-40" y="0" width="80" height="35" rx="6" fill="#F48FB1" stroke="#1A1A2E" stroke-width="2"/>
    <rect x="-35" y="-20" width="70" height="22" rx="4" fill="#CE93D8" stroke="#1A1A2E" stroke-width="1.5"/>
    <line x1="-15" y1="-20" x2="-15" y2="-38" stroke="#FFD54F" stroke-width="3"/>
    <ellipse cx="-15" cy="-40" rx="5" ry="7" fill="#FF7043" stroke="#1A1A2E" stroke-width="1"/>
    <line x1="0" y1="-20" x2="0" y2="-42" stroke="#FFD54F" stroke-width="3"/>
    <ellipse cx="0" cy="-44" rx="5" ry="7" fill="#FF7043" stroke="#1A1A2E" stroke-width="1"/>
    <line x1="15" y1="-20" x2="15" y2="-38" stroke="#FFD54F" stroke-width="3"/>
    <ellipse cx="15" cy="-40" rx="5" ry="7" fill="#FF7043" stroke="#1A1A2E" stroke-width="1"/>
  </g>
    <g transform="translate(400,200)">
      <ellipse cx="0" cy="8" rx="18" ry="14" fill="#FFFFFF" stroke="#1A1A2E" stroke-width="2"/>
      <rect x="-14" y="-18" width="28" height="22" rx="4" fill="#81D4FA" stroke="#1A1A2E" stroke-width="1.5"/>
      <ellipse cx="0" cy="-18" rx="16" ry="5" fill="#4FC3F7" stroke="#1A1A2E" stroke-width="1"/>
    </g>
    <g transform="translate(620,340)">
      <ellipse cx="0" cy="10" rx="28" ry="22" fill="#FFAB91" stroke="#1A1A2E" stroke-width="2"/>
      <circle cx="0" cy="-12" r="20" fill="#FFAB91" stroke="#1A1A2E" stroke-width="2"/>
      <polygon points="-18,-28 -12,-18 -22,-18" fill="#FFAB91" stroke="#1A1A2E" stroke-width="1.5"/>
      <polygon points="18,-28 12,-18 22,-18" fill="#FFAB91" stroke="#1A1A2E" stroke-width="1.5"/>
      <ellipse cx="-7" cy="-12" rx="9" ry="11" fill="#FFFFFF" stroke="#1A1A2E" stroke-width="1.5"/>
  <circle cx="-8" cy="-10" r="5.5" fill="#1A1A2E"/>
  <circle cx="-9" cy="-13" r="2" fill="#FFFFFF"/><ellipse cx="7" cy="-12" rx="9" ry="11" fill="#FFFFFF" stroke="#1A1A2E" stroke-width="1.5"/>
  <circle cx="8" cy="-10" r="5.5" fill="#1A1A2E"/>
  <circle cx="9" cy="-13" r="2" fill="#FFFFFF"/>
      <path d="M-3 -5 L0 -2 L3 -5" fill="none" stroke="#1A1A2E" stroke-width="1.5"/>
      <path d="M-4 2 Q0 10 4 2" fill="none" stroke="#1A1A2E" stroke-width="2" stroke-linecap="round"/>
    </g>
    <g transform="translate(200,330) scale(0.95)">
    <line x1="-10" y1="52" x2="-10" y2="80" stroke="#FFCC80" stroke-width="10" stroke-linecap="round"/>
    <line x1="10" y1="52" x2="10" y2="80" stroke="#FFCC80" stroke-width="10" stroke-linecap="round"/>
    <ellipse cx="-10" cy="84" rx="10" ry="5" fill="#EF5350" stroke="#1A1A2E" stroke-width="1.5"/>
    <ellipse cx="10" cy="84" rx="10" ry="5" fill="#EF5350" stroke="#1A1A2E" stroke-width="1.5"/>
    <path d="M-22 18 Q0 14 22 18 L24 70 Q0 78 -24 70 Z" fill="#FF7043" stroke="#1A1A2E" stroke-width="2"/>
    <path d="M-22 22 Q-38 38 -42 55" fill="none" stroke="#FFCC80" stroke-width="10" stroke-linecap="round"/>
    <path d="M22 22 Q38 38 42 55" fill="none" stroke="#FFCC80" stroke-width="10" stroke-linecap="round"/>
    <circle cx="0" cy="-8" r="28" fill="#FFCC80" stroke="#1A1A2E" stroke-width="2"/>
    <path d="M-30 0 Q-32 -30 0 -35 Q32 -30 30 0 L28 15 Q0 20 -28 15 Z" fill="#6D4C41" stroke="#1A1A2E" stroke-width="1.5"/>
    <ellipse cx="-11" cy="-5" rx="9" ry="11" fill="#FFFFFF" stroke="#1A1A2E" stroke-width="1.5"/>
  <circle cx="-12" cy="-3" r="5.5" fill="#1A1A2E"/>
  <circle cx="-13" cy="-6" r="2" fill="#FFFFFF"/><ellipse cx="11" cy="-5" rx="9" ry="11" fill="#FFFFFF" stroke="#1A1A2E" stroke-width="1.5"/>
  <circle cx="12" cy="-3" r="5.5" fill="#1A1A2E"/>
  <circle cx="13" cy="-6" r="2" fill="#FFFFFF"/>
    <path d="M-8 10 Q0 18 8 10" fill="none" stroke="#1A1A2E" stroke-width="2" stroke-linecap="round"/>
  </g>
    <g transform="translate(720,300) scale(0.85)">
      <rect x="-40" y="0" width="80" height="28" rx="8" fill="#EF5350" stroke="#1A1A2E" stroke-width="2"/>
      <circle cx="-28" cy="30" r="10" fill="#37474F" stroke="#1A1A2E" stroke-width="1.5"/>
      <circle cx="28" cy="30" r="10" fill="#37474F" stroke="#1A1A2E" stroke-width="1.5"/>
      <rect x="20" y="-18" width="28" height="22" rx="4" fill="#81D4FA" stroke="#1A1A2E" stroke-width="1.5"/>
    </g>
  <rect x="28" y="28" width="118" height="42" rx="21" fill="rgba(255,255,255,0.92)" stroke="#1A1A2E" stroke-width="1"/>
  <text x="87" y="56" text-anchor="middle" font-family="Arial,Helvetica,sans-serif" font-size="22" font-weight="700" fill="#EF6C00">Unit 2</text>
</svg>
