<?xml version="1.0" encoding="UTF-8"?>
<svg xmlns="http://www.w3.org/2000/svg" viewBox="0 0 850 500" width="850" height="500" role="img" aria-label="Unit 2: Life In The Countryside">
  <defs><linearGradient id="sky" x1="0" y1="0" x2="0" y2="1"><stop offset="0%" stop-color="#81D4FA"/><stop offset="100%" stop-color="#B3E5FC"/></linearGradient></defs>
  <rect width="850" height="500" fill="url(#sky)"/><circle cx="720" cy="80" r="45" fill="#FFD54F" stroke="#1A1A2E" stroke-width="2"/>
  <circle cx="720" cy="80" r="37" fill="#FFEB3B" opacity="0.6"/><g transform="translate(180,60) scale(1)">
    <ellipse cx="0" cy="0" rx="35" ry="18" fill="#FFFFFF" stroke="#1A1A2E" stroke-width="1.5"/>
    <ellipse cx="-25" cy="5" rx="22" ry="14" fill="#FFFFFF" stroke="#1A1A2E" stroke-width="1.5"/>
    <ellipse cx="25" cy="5" rx="22" ry="14" fill="#FFFFFF" stroke="#1A1A2E" stroke-width="1.5"/>
  </g>
    <rect y="370" width="850" height="130" fill="#A5D6A7"/>
  <ellipse cx="120" cy="400" rx="90" ry="18" fill="#7CB342" opacity="0.5"/>
  <ellipse cx="420" cy="390" rx="120" ry="22" fill="#7CB342" opacity="0.4"/>
  <ellipse cx="720" cy="405" rx="100" ry="20" fill="#7CB342" opacity="0.5"/>
    <rect x="500" y="180" width="100" height="70" fill="#8D6E63" stroke="#1A1A2E" stroke-width="2"/>
    <polygon points="500,180 550,140 600,180" fill="#EF5350" stroke="#1A1A2E" stroke-width="2"/>
    <path d="M0 370 Q150 340 300 370 Q450 400 600 370 Q750 340 850 370 L850 500 L0 500 Z" fill="#C5E1A5" stroke="#1A1A2E" stroke-width="1"/>
    <path d="M100 370 L120 350 L140 370 L160 355 L180 370" fill="none" stroke="#FFD54F" stroke-width="3"/>
    <g transform="translate(350,340) scale(1)">
    <line x1="-12" y1="58" x2="-12" y2="95" stroke="#37474F" stroke-width="12" stroke-linecap="round"/>
    <line x1="12" y1="58" x2="12" y2="95" stroke="#37474F" stroke-width="12" stroke-linecap="round"/>
    <ellipse cx="-12" cy="99" rx="12" ry="5" fill="#263238" stroke="#1A1A2E" stroke-width="1.5"/>
    <ellipse cx="12" cy="99" rx="12" ry="5" fill="#263238" stroke="#1A1A2E" stroke-width="1.5"/>
    <path d="M-26 22 Q0 16 26 22 L28 62 Q0 70 -28 62 Z" fill="#66BB6A" stroke="#1A1A2E" stroke-width="2"/>
    <path d="M-26 26 Q-44 42 -48 62" fill="none" stroke="#FFCC80" stroke-width="11" stroke-linecap="round"/>
    <path d="M26 26 Q44 42 48 62" fill="none" stroke="#FFCC80" stroke-width="11" stroke-linecap="round"/>
    <circle cx="0" cy="-12" r="32" fill="#FFCC80" stroke="#1A1A2E" stroke-width="2"/>
    <path d="M-30 0 Q-24 -42 0 -46 Q24 -42 30 0 Q18 -30 0 -34 Q-18 -30 -30 0" fill="#212121" stroke="#1A1A2E" stroke-width="1.5"/>
    <ellipse cx="-13" cy="-8" rx="9" ry="11" fill="#FFFFFF" stroke="#1A1A2E" stroke-width="1.5"/>
  <circle cx="-14" cy="-6" r="5.5" fill="#1A1A2E"/>
  <circle cx="-15" cy="-9" r="2" fill="#FFFFFF"/><ellipse cx="13" cy="-8" rx="9" ry="11" fill="#FFFFFF" stroke="#1A1A2E" stroke-width="1.5"/>
  <circle cx="14" cy="-6" r="5.5" fill="#1A1A2E"/>
  <circle cx="15" cy="-9" r="2" fill="#FFFFFF"/>
    <path d="M-8 8 Q0 16 8 8" fill="none" stroke="#1A1A2E" stroke-width="2" stroke-linecap="round"/>
  </g>
    <rect x="320" y="280" width="60" height="8" rx="2" fill="#8D6E63" stroke="#1A1A2E" stroke-width="1"/>
    <g transform="translate(620,360)">
      <ellipse cx="0" cy="15" rx="35" ry="25" fill="#FFCC80" stroke="#1A1A2E" stroke-width="2"/>
      <circle cx="0" cy="-15" r="22" fill="#FFCC80" stroke="#1A1A2E" stroke-width="2"/>
      <ellipse cx="-18" cy="-22" rx="10" ry="14" fill="#FFCC80" stroke="#1A1A2E" stroke-width="1.5"/>
      <ellipse cx="18" cy="-22" rx="10" ry="14" fill="#FFCC80" stroke="#1A1A2E" stroke-width="1.5"/>
      <ellipse cx="-8" cy="-15" rx="9" ry="11" fill="#FFFFFF" stroke="#1A1A2E" stroke-width="1.5"/>
  <circle cx="-9" cy="-13" r="5.5" fill="#1A1A2E"/>
  <circle cx="-10" cy="-16" r="2" fill="#FFFFFF"/><ellipse cx="8" cy="-15" rx="9" ry="11" fill="#FFFFFF" stroke="#1A1A2E" stroke-width="1.5"/>
  <circle cx="9" cy="-13" r="5.5" fill="#1A1A2E"/>
  <circle cx="10" cy="-16" r="2" fill="#FFFFFF"/>
      <ellipse cx="0" cy="-5" rx="6" ry="5" fill="#5D4037" stroke="#1A1A2E" stroke-width="1"/>
      <path d="M-5 2 Q0 10 5 2" fill="none" stroke="#1A1A2E" stroke-width="2" stroke-linecap="round"/>
      <path d="M-30 15 Q-50 5 -45 -5" fill="none" stroke="#FFCC80" stroke-width="8" stroke-linecap="round"/>
    </g>
  <rect x="28" y="28" width="118" height="42" rx="21" fill="rgba(255,255,255,0.92)" stroke="#1A1A2E" stroke-width="1"/>
  <text x="87" y="56" text-anchor="middle" font-family="Arial,Helvetica,sans-serif" font-size="22" font-weight="700" fill="#2E7D32">Unit 2</text>
</svg>
