<?xml version="1.0" encoding="UTF-8"?>
<svg xmlns="http://www.w3.org/2000/svg" viewBox="0 0 850 500" width="850" height="500" role="img" aria-label="Unit 19: The Animal World">
  <defs><linearGradient id="sky" x1="0" y1="0" x2="0" y2="1"><stop offset="0%" stop-color="#87CEEB"/><stop offset="100%" stop-color="#B3E5FC"/></linearGradient></defs>
  <rect width="850" height="500" fill="url(#sky)"/><rect y="370" width="850" height="130" fill="#A5D6A7"/>
  <ellipse cx="120" cy="400" rx="90" ry="18" fill="#7CB342" opacity="0.5"/>
  <ellipse cx="420" cy="390" rx="120" ry="22" fill="#7CB342" opacity="0.4"/>
  <ellipse cx="720" cy="405" rx="100" ry="20" fill="#7CB342" opacity="0.5"/>
    <g transform="translate(200,340)">
      <ellipse cx="0" cy="15" rx="35" ry="25" fill="#FFCC80" stroke="#1A1A2E" stroke-width="2"/>
      <circle cx="0" cy="-15" r="22" fill="#FFCC80" stroke="#1A1A2E" stroke-width="2"/>
      <ellipse cx="-18" cy="-22" rx="10" ry="14" fill="#FFCC80" stroke="#1A1A2E" stroke-width="1.5"/>
      <ellipse cx="18" cy="-22" rx="10" ry="14" fill="#FFCC80" stroke="#1A1A2E" stroke-width="1.5"/>
      <ellipse cx="-8" cy="-15" rx="9" ry="11" fill="#FFFFFF" stroke="#1A1A2E" stroke-width="1.5"/>
  <circle cx="-9" cy="-13" r="5.5" fill="#1A1A2E"/>
  <circle cx="-10" cy="-16" r="2" fill="#FFFFFF"/><ellipse cx="8" cy="-15" rx="9" ry="11" fill="#FFFFFF" stroke="#1A1A2E" stroke-width="1.5"/>
  <circle cx="9" cy="-13" r="5.5" fill="#1A1A2E"/>
  <circle cx="10" cy="-16" r="2" fill="#FFFFFF"/>
      <ellipse cx="0" cy="-5" rx="6" ry="5" fill="#5D4037" stroke="#1A1A2E" stroke-width="1"/>
      <path d="M-5 2 Q0 10 5 2" fill="none" stroke="#1A1A2E" stroke-width="2" stroke-linecap="round"/>
      <path d="M-30 15 Q-50 5 -45 -5" fill="none" stroke="#FFCC80" stroke-width="8" stroke-linecap="round"/>
    </g>
    <g transform="translate(400,350)">
      <ellipse cx="0" cy="10" rx="28" ry="22" fill="#FFAB91" stroke="#1A1A2E" stroke-width="2"/>
      <circle cx="0" cy="-12" r="20" fill="#FFAB91" stroke="#1A1A2E" stroke-width="2"/>
      <polygon points="-18,-28 -12,-18 -22,-18" fill="#FFAB91" stroke="#1A1A2E" stroke-width="1.5"/>
      <polygon points="18,-28 12,-18 22,-18" fill="#FFAB91" stroke="#1A1A2E" stroke-width="1.5"/>
      <ellipse cx="-7" cy="-12" rx="9" ry="11" fill="#FFFFFF" stroke="#1A1A2E" stroke-width="1.5"/>
  <circle cx="-8" cy="-10" r="5.5" fill="#1A1A2E"/>
  <circle cx="-9" cy="-13" r="2" fill="#FFFFFF"/><ellipse cx="7" cy="-12" rx="9" ry="11" fill="#FFFFFF" stroke="#1A1A2E" stroke-width="1.5"/>
  <circle cx="8" cy="-10" r="5.5" fill="#1A1A2E"/>
  <circle cx="9" cy="-13" r="2" fill="#FFFFFF"/>
      <path d="M-3 -5 L0 -2 L3 -5" fill="none" stroke="#1A1A2E" stroke-width="1.5"/>
      <path d="M-4 2 Q0 10 4 2" fill="none" stroke="#1A1A2E" stroke-width="2" stroke-linecap="round"/>
    </g>
    <g transform="translate(600,330)">
      <ellipse cx="0" cy="0" rx="18" ry="14" fill="#42A5F5" stroke="#1A1A2E" stroke-width="2"/>
      <circle cx="12" cy="-8" r="10" fill="#42A5F5" stroke="#1A1A2E" stroke-width="1.5"/>
      <polygon points="20,-8 30,-5 20,-2" fill="#FF7043" stroke="#1A1A2E" stroke-width="1"/>
      <circle cx="15" cy="-10" r="3" fill="#1A1A2E"/>
      <path d="M-15 0 Q-30 -15 -25 -25" fill="#1565C0" stroke="#1A1A2E" stroke-width="1.5"/>
    </g>
    <g transform="translate(750,340)">
    <ellipse cx="0" cy="20" rx="45" ry="30" fill="#90A4AE" stroke="#1A1A2E" stroke-width="2"/>
    <circle cx="0" cy="-10" r="28" fill="#90A4AE" stroke="#1A1A2E" stroke-width="2"/>
    <ellipse cx="-30" cy="-5" rx="18" ry="30" fill="#B0BEC5" stroke="#1A1A2E" stroke-width="1.5" transform="rotate(-20 -30 -5)"/>
    <ellipse cx="30" cy="-5" rx="18" ry="30" fill="#B0BEC5" stroke="#1A1A2E" stroke-width="1.5" transform="rotate(20 30 -5)"/>
    <ellipse cx="-10" cy="-12" rx="9" ry="11" fill="#FFFFFF" stroke="#1A1A2E" stroke-width="1.5"/>
  <circle cx="-11" cy="-10" r="5.5" fill="#1A1A2E"/>
  <circle cx="-12" cy="-13" r="2" fill="#FFFFFF"/><ellipse cx="10" cy="-12" rx="9" ry="11" fill="#FFFFFF" stroke="#1A1A2E" stroke-width="1.5"/>
  <circle cx="11" cy="-10" r="5.5" fill="#1A1A2E"/>
  <circle cx="12" cy="-13" r="2" fill="#FFFFFF"/>
    <path d="M-5 0 L0 8 L5 0" fill="none" stroke="#1A1A2E" stroke-width="2"/>
  </g>
    <g transform="translate(320,320) scale(0.9)">
    <line x1="-11" y1="52" x2="-11" y2="82" stroke="#1565C0" stroke-width="13" stroke-linecap="round"/>
    <line x1="11" y1="52" x2="11" y2="82" stroke="#1565C0" stroke-width="13" stroke-linecap="round"/>
    <ellipse cx="-11" cy="86" rx="11" ry="5" fill="#37474F" stroke="#1A1A2E" stroke-width="1.5"/>
    <ellipse cx="11" cy="86" rx="11" ry="5" fill="#37474F" stroke="#1A1A2E" stroke-width="1.5"/>
    <path d="M-24 18 Q0 12 24 18 L26 55 Q0 62 -26 55 Z" fill="#66BB6A" stroke="#1A1A2E" stroke-width="2"/>
    <path d="M-24 22 Q-42 35 -46 52" fill="none" stroke="#FFCC80" stroke-width="11" stroke-linecap="round"/>
    <path d="M24 22 Q42 35 46 52" fill="none" stroke="#FFCC80" stroke-width="11" stroke-linecap="round"/>
    <circle cx="0" cy="-8" r="30" fill="#FFCC80" stroke="#1A1A2E" stroke-width="2"/>
    <ellipse cx="0" cy="5" rx="18" ry="8" fill="#F0A860" opacity="0.3"/>
    <path d="M-28 0 Q-22 -38 0 -42 Q22 -38 28 0 Q18 -28 0 -32 Q-18 -28 -28 0" fill="#3E2723" stroke="#1A1A2E" stroke-width="1.5"/>
    <ellipse cx="-12" cy="-5" rx="9" ry="11" fill="#FFFFFF" stroke="#1A1A2E" stroke-width="1.5"/>
  <circle cx="-13" cy="-3" r="5.5" fill="#1A1A2E"/>
  <circle cx="-14" cy="-6" r="2" fill="#FFFFFF"/><ellipse cx="12" cy="-5" rx="9" ry="11" fill="#FFFFFF" stroke="#1A1A2E" stroke-width="1.5"/>
  <circle cx="13" cy="-3" r="5.5" fill="#1A1A2E"/>
  <circle cx="14" cy="-6" r="2" fill="#FFFFFF"/>
    <path d="M-8 10 Q0 18 8 10" fill="none" stroke="#1A1A2E" stroke-width="2" stroke-linecap="round"/>
  </g>
    <g transform="translate(480,320) scale(0.9)">
    <line x1="-10" y1="52" x2="-10" y2="80" stroke="#FFCC80" stroke-width="10" stroke-linecap="round"/>
    <line x1="10" y1="52" x2="10" y2="80" stroke="#FFCC80" stroke-width="10" stroke-linecap="round"/>
    <ellipse cx="-10" cy="84" rx="10" ry="5" fill="#EF5350" stroke="#1A1A2E" stroke-width="1.5"/>
    <ellipse cx="10" cy="84" rx="10" ry="5" fill="#EF5350" stroke="#1A1A2E" stroke-width="1.5"/>
    <path d="M-22 18 Q0 14 22 18 L24 70 Q0 78 -24 70 Z" fill="#FFD54F" stroke="#1A1A2E" stroke-width="2"/>
    <path d="M-22 22 Q-38 38 -42 55" fill="none" stroke="#FFCC80" stroke-width="10" stroke-linecap="round"/>
    <path d="M22 22 Q38 38 42 55" fill="none" stroke="#FFCC80" stroke-width="10" stroke-linecap="round"/>
    <circle cx="0" cy="-8" r="28" fill="#FFCC80" stroke="#1A1A2E" stroke-width="2"/>
    <circle cx="-32" cy="-15" r="10" fill="#5D4037" stroke="#1A1A2E" stroke-width="1.5"/>
         <circle cx="32" cy="-15" r="10" fill="#5D4037" stroke="#1A1A2E" stroke-width="1.5"/>
    <ellipse cx="-11" cy="-5" rx="9" ry="11" fill="#FFFFFF" stroke="#1A1A2E" stroke-width="1.5"/>
  <circle cx="-12" cy="-3" r="5.5" fill="#1A1A2E"/>
  <circle cx="-13" cy="-6" r="2" fill="#FFFFFF"/><ellipse cx="11" cy="-5" rx="9" ry="11" fill="#FFFFFF" stroke="#1A1A2E" stroke-width="1.5"/>
  <circle cx="12" cy="-3" r="5.5" fill="#1A1A2E"/>
  <circle cx="13" cy="-6" r="2" fill="#FFFFFF"/>
    <path d="M-8 10 Q0 18 8 10" fill="none" stroke="#1A1A2E" stroke-width="2" stroke-linecap="round"/>
  </g>
    <rect x="100" y="280" width="80" height="60" rx="4" fill="#8D6E63" stroke="#1A1A2E" stroke-width="1.5"/>
    <text x="140" y="318" text-anchor="middle" font-family="Arial,sans-serif" font-size="14" font-weight="700" fill="#FFF">ZOO</text>
  <rect x="28" y="28" width="118" height="42" rx="21" fill="rgba(255,255,255,0.92)" stroke="#1A1A2E" stroke-width="1"/>
  <text x="87" y="56" text-anchor="middle" font-family="Arial,Helvetica,sans-serif" font-size="22" font-weight="700" fill="#2E7D32">Unit 19</text>
</svg>
