<?xml version="1.0" encoding="UTF-8"?>
<svg xmlns="http://www.w3.org/2000/svg" viewBox="0 0 850 500" width="850" height="500" role="img" aria-label="Unit 13: Appearance">
  <defs><linearGradient id="sky" x1="0" y1="0" x2="0" y2="1"><stop offset="0%" stop-color="#F8BBD0"/><stop offset="100%" stop-color="#FCE4EC"/></linearGradient></defs>
  <rect width="850" height="500" fill="url(#sky)"/><rect y="360" width="850" height="140" fill="#7CB342"/>
  <ellipse cx="120" cy="390" rx="90" ry="18" fill="#558B2F" opacity="0.5"/>
  <ellipse cx="420" cy="380" rx="120" ry="22" fill="#558B2F" opacity="0.4"/>
  <ellipse cx="720" cy="395" rx="100" ry="20" fill="#558B2F" opacity="0.5"/>
    <g transform="translate(350,310) scale(1.1)">
    <line x1="-10" y1="52" x2="-10" y2="80" stroke="#FFCC80" stroke-width="10" stroke-linecap="round"/>
    <line x1="10" y1="52" x2="10" y2="80" stroke="#FFCC80" stroke-width="10" stroke-linecap="round"/>
    <ellipse cx="-10" cy="84" rx="10" ry="5" fill="#EF5350" stroke="#1A1A2E" stroke-width="1.5"/>
    <ellipse cx="10" cy="84" rx="10" ry="5" fill="#EF5350" stroke="#1A1A2E" stroke-width="1.5"/>
    <path d="M-22 18 Q0 14 22 18 L24 70 Q0 78 -24 70 Z" fill="#EC407A" stroke="#1A1A2E" stroke-width="2"/>
    <path d="M-22 22 Q-38 38 -42 55" fill="none" stroke="#FFCC80" stroke-width="10" stroke-linecap="round"/>
    <path d="M22 22 Q38 38 42 55" fill="none" stroke="#FFCC80" stroke-width="10" stroke-linecap="round"/>
    <circle cx="0" cy="-8" r="28" fill="#FFCC80" stroke="#1A1A2E" stroke-width="2"/>
    <path d="M-30 5 Q-28 -32 0 -38 Q28 -32 30 5 L25 30 Q0 35 -25 30 Z" fill="#5D4037" stroke="#1A1A2E" stroke-width="1.5"/>
    <ellipse cx="-11" cy="-5" rx="9" ry="11" fill="#FFFFFF" stroke="#1A1A2E" stroke-width="1.5"/>
  <circle cx="-12" cy="-3" r="5.5" fill="#1A1A2E"/>
  <circle cx="-13" cy="-6" r="2" fill="#FFFFFF"/><ellipse cx="11" cy="-5" rx="9" ry="11" fill="#FFFFFF" stroke="#1A1A2E" stroke-width="1.5"/>
  <circle cx="12" cy="-3" r="5.5" fill="#1A1A2E"/>
  <circle cx="13" cy="-6" r="2" fill="#FFFFFF"/>
    <path d="M-8 10 Q0 18 8 10" fill="none" stroke="#1A1A2E" stroke-width="2" stroke-linecap="round"/>
  </g>
    <rect x="500" y="180" width="80" height="140" rx="8" fill="#E1BEE7" stroke="#1A1A2E" stroke-width="2"/>
    <rect x="515" y="195" width="50" height="100" rx="4" fill="#B3E5FC" stroke="#1A1A2E" stroke-width="1.5"/>
    <g transform="translate(540,240)">
      <circle cx="0" cy="0" r="22" fill="#FFCC80" stroke="#1A1A2E" stroke-width="1.5"/>
      <path d="M-20 5 Q-18 -18 0 -22 Q18 -18 20 5" fill="#6D4C41" stroke="#1A1A2E" stroke-width="1"/>
      <ellipse cx="-7" cy="-2" rx="9" ry="11" fill="#FFFFFF" stroke="#1A1A2E" stroke-width="1.5"/>
  <circle cx="-8" cy="0" r="5.5" fill="#1A1A2E"/>
  <circle cx="-9" cy="-3" r="2" fill="#FFFFFF"/><ellipse cx="7" cy="-2" rx="9" ry="11" fill="#FFFFFF" stroke="#1A1A2E" stroke-width="1.5"/>
  <circle cx="8" cy="0" r="5.5" fill="#1A1A2E"/>
  <circle cx="9" cy="-3" r="2" fill="#FFFFFF"/>
      <path d="M-8 8 Q0 16 8 8" fill="none" stroke="#1A1A2E" stroke-width="2" stroke-linecap="round"/>
    </g>
    <g transform="translate(650,310) scale(1)">
    <line x1="-11" y1="52" x2="-11" y2="82" stroke="#1565C0" stroke-width="13" stroke-linecap="round"/>
    <line x1="11" y1="52" x2="11" y2="82" stroke="#1565C0" stroke-width="13" stroke-linecap="round"/>
    <ellipse cx="-11" cy="86" rx="11" ry="5" fill="#37474F" stroke="#1A1A2E" stroke-width="1.5"/>
    <ellipse cx="11" cy="86" rx="11" ry="5" fill="#37474F" stroke="#1A1A2E" stroke-width="1.5"/>
    <path d="M-24 18 Q0 12 24 18 L26 55 Q0 62 -26 55 Z" fill="#42A5F5" stroke="#1A1A2E" stroke-width="2"/>
    <path d="M-24 22 Q-42 35 -46 52" fill="none" stroke="#FFCC80" stroke-width="11" stroke-linecap="round"/>
    <path d="M24 22 Q42 35 46 52" fill="none" stroke="#FFCC80" stroke-width="11" stroke-linecap="round"/>
    <circle cx="0" cy="-8" r="30" fill="#FFCC80" stroke="#1A1A2E" stroke-width="2"/>
    <ellipse cx="0" cy="5" rx="18" ry="8" fill="#F0A860" opacity="0.3"/>
    <path d="M-28 2 Q-30 -20 -15 -35 Q0 -42 15 -35 Q30 -20 28 2 Q15 -15 0 -18 Q-15 -15 -28 2" fill="#3E2723" stroke="#1A1A2E" stroke-width="1.5"/>
    <ellipse cx="-12" cy="-5" rx="9" ry="11" fill="#FFFFFF" stroke="#1A1A2E" stroke-width="1.5"/>
  <circle cx="-13" cy="-3" r="5.5" fill="#1A1A2E"/>
  <circle cx="-14" cy="-6" r="2" fill="#FFFFFF"/><ellipse cx="12" cy="-5" rx="9" ry="11" fill="#FFFFFF" stroke="#1A1A2E" stroke-width="1.5"/>
  <circle cx="13" cy="-3" r="5.5" fill="#1A1A2E"/>
  <circle cx="14" cy="-6" r="2" fill="#FFFFFF"/>
    <path d="M-8 10 Q0 18 8 10" fill="none" stroke="#1A1A2E" stroke-width="2" stroke-linecap="round"/>
  </g>
  <rect x="28" y="28" width="118" height="42" rx="21" fill="rgba(255,255,255,0.92)" stroke="#1A1A2E" stroke-width="1"/>
  <text x="87" y="56" text-anchor="middle" font-family="Arial,Helvetica,sans-serif" font-size="22" font-weight="700" fill="#AD1457">Unit 13</text>
</svg>
