<?xml version="1.0" encoding="UTF-8"?>
<svg xmlns="http://www.w3.org/2000/svg" viewBox="0 0 850 500" width="850" height="500" role="img" aria-label="Unit 18: At The Shopping Centre">
  <defs><linearGradient id="sky" x1="0" y1="0" x2="0" y2="1"><stop offset="0%" stop-color="#E1BEE7"/><stop offset="100%" stop-color="#F3E5F5"/></linearGradient></defs>
  <rect width="850" height="500" fill="url(#sky)"/><rect y="380" width="850" height="120" fill="#7CB342"/>
  <ellipse cx="120" cy="410" rx="90" ry="18" fill="#558B2F" opacity="0.5"/>
  <ellipse cx="420" cy="400" rx="120" ry="22" fill="#558B2F" opacity="0.4"/>
  <ellipse cx="720" cy="415" rx="100" ry="20" fill="#558B2F" opacity="0.5"/>
    <rect x="150" y="120" width="550" height="250" rx="8" fill="#FFFFFF" stroke="#1A1A2E" stroke-width="2"/>
    <rect x="150" y="120" width="550" height="40" fill="#AB47BC" stroke="#1A1A2E" stroke-width="2"/>
    <text x="425" y="148" text-anchor="middle" font-family="Arial,sans-serif" font-size="20" font-weight="700" fill="#FFFFFF">SHOPPING CENTRE</text>
    <rect x="180" y="180" width="100" height="80" rx="4" fill="#F8BBD0" stroke="#1A1A2E" stroke-width="1.5"/>
    <text x="230" y="228" text-anchor="middle" font-family="Arial,sans-serif" font-size="12" font-weight="700" fill="#1A1A2E">SHOES</text>
    <rect x="310" y="180" width="100" height="80" rx="4" fill="#BBDEFB" stroke="#1A1A2E" stroke-width="1.5"/>
    <text x="360" y="228" text-anchor="middle" font-family="Arial,sans-serif" font-size="12" font-weight="700" fill="#1A1A2E">TOYS</text>
    <rect x="440" y="180" width="100" height="80" rx="4" fill="#C8E6C9" stroke="#1A1A2E" stroke-width="1.5"/>
    <text x="490" y="228" text-anchor="middle" font-family="Arial,sans-serif" font-size="12" font-weight="700" fill="#1A1A2E">FOOD</text>
    <g transform="translate(350,360) scale(1)">
    <line x1="-10" y1="52" x2="-10" y2="80" stroke="#FFCC80" stroke-width="10" stroke-linecap="round"/>
    <line x1="10" y1="52" x2="10" y2="80" stroke="#FFCC80" stroke-width="10" stroke-linecap="round"/>
    <ellipse cx="-10" cy="84" rx="10" ry="5" fill="#EF5350" stroke="#1A1A2E" stroke-width="1.5"/>
    <ellipse cx="10" cy="84" rx="10" ry="5" fill="#EF5350" stroke="#1A1A2E" stroke-width="1.5"/>
    <path d="M-22 18 Q0 14 22 18 L24 70 Q0 78 -24 70 Z" fill="#EC407A" stroke="#1A1A2E" stroke-width="2"/>
    <path d="M-22 22 Q-38 38 -42 55" fill="none" stroke="#FFCC80" stroke-width="10" stroke-linecap="round"/>
    <path d="M22 22 Q38 38 42 55" fill="none" stroke="#FFCC80" stroke-width="10" stroke-linecap="round"/>
    <circle cx="0" cy="-8" r="28" fill="#FFCC80" stroke="#1A1A2E" stroke-width="2"/>
    <path d="M-30 5 Q-28 -32 0 -38 Q28 -32 30 5 L25 30 Q0 35 -25 30 Z" fill="#5D4037" stroke="#1A1A2E" stroke-width="1.5"/>
    <ellipse cx="-11" cy="-5" rx="9" ry="11" fill="#FFFFFF" stroke="#1A1A2E" stroke-width="1.5"/>
  <circle cx="-12" cy="-3" r="5.5" fill="#1A1A2E"/>
  <circle cx="-13" cy="-6" r="2" fill="#FFFFFF"/><ellipse cx="11" cy="-5" rx="9" ry="11" fill="#FFFFFF" stroke="#1A1A2E" stroke-width="1.5"/>
  <circle cx="12" cy="-3" r="5.5" fill="#1A1A2E"/>
  <circle cx="13" cy="-6" r="2" fill="#FFFFFF"/>
    <path d="M-8 10 Q0 18 8 10" fill="none" stroke="#1A1A2E" stroke-width="2" stroke-linecap="round"/>
  </g>
    <rect x="300" y="330" width="50" height="35" rx="4" fill="#B0BEC5" stroke="#1A1A2E" stroke-width="1.5"/>
    <circle cx="310" cy="345" r="8" fill="#EF5350" stroke="#1A1A2E" stroke-width="1"/>
    <g transform="translate(550,360) scale(0.9)">
    <line x1="-11" y1="52" x2="-11" y2="82" stroke="#1565C0" stroke-width="13" stroke-linecap="round"/>
    <line x1="11" y1="52" x2="11" y2="82" stroke="#1565C0" stroke-width="13" stroke-linecap="round"/>
    <ellipse cx="-11" cy="86" rx="11" ry="5" fill="#37474F" stroke="#1A1A2E" stroke-width="1.5"/>
    <ellipse cx="11" cy="86" rx="11" ry="5" fill="#37474F" stroke="#1A1A2E" stroke-width="1.5"/>
    <path d="M-24 18 Q0 12 24 18 L26 55 Q0 62 -26 55 Z" fill="#42A5F5" stroke="#1A1A2E" stroke-width="2"/>
    <path d="M-24 22 Q-42 35 -46 52" fill="none" stroke="#FFCC80" stroke-width="11" stroke-linecap="round"/>
    <path d="M24 22 Q42 35 46 52" fill="none" stroke="#FFCC80" stroke-width="11" stroke-linecap="round"/>
    <circle cx="0" cy="-8" r="30" fill="#FFCC80" stroke="#1A1A2E" stroke-width="2"/>
    <ellipse cx="0" cy="5" rx="18" ry="8" fill="#F0A860" opacity="0.3"/>
    <path d="M-28 0 Q-22 -38 0 -42 Q22 -38 28 0 Q18 -28 0 -32 Q-18 -28 -28 0" fill="#3E2723" stroke="#1A1A2E" stroke-width="1.5"/>
    <ellipse cx="-12" cy="-5" rx="9" ry="11" fill="#FFFFFF" stroke="#1A1A2E" stroke-width="1.5"/>
  <circle cx="-13" cy="-3" r="5.5" fill="#1A1A2E"/>
  <circle cx="-14" cy="-6" r="2" fill="#FFFFFF"/><ellipse cx="12" cy="-5" rx="9" ry="11" fill="#FFFFFF" stroke="#1A1A2E" stroke-width="1.5"/>
  <circle cx="13" cy="-3" r="5.5" fill="#1A1A2E"/>
  <circle cx="14" cy="-6" r="2" fill="#FFFFFF"/>
    <path d="M-8 10 Q0 18 8 10" fill="none" stroke="#1A1A2E" stroke-width="2" stroke-linecap="round"/>
  </g>
  <rect x="28" y="28" width="118" height="42" rx="21" fill="rgba(255,255,255,0.92)" stroke="#1A1A2E" stroke-width="1"/>
  <text x="87" y="56" text-anchor="middle" font-family="Arial,Helvetica,sans-serif" font-size="22" font-weight="700" fill="#7B1FA2">Unit 18</text>
</svg>
