<?xml version="1.0" encoding="UTF-8"?>
<svg xmlns="http://www.w3.org/2000/svg" viewBox="0 0 850 500" width="850" height="500" role="img" aria-label="Unit 14: Daily Activities">
  <defs><linearGradient id="sky" x1="0" y1="0" x2="0" y2="1"><stop offset="0%" stop-color="#B2EBF2"/><stop offset="100%" stop-color="#E0F7FA"/></linearGradient></defs>
    <rect width="850" height="500" fill="url(#sky)"/>
    <rect x="0" y="380" width="850" height="120" fill="#BCAAA4"/>
    <rect x="280" y="200" width="200" height="120" rx="6" fill="#8D6E63" stroke="#1A1A2E" stroke-width="2"/>
    <rect x="290" y="210" width="180" height="15" fill="#6D4C41"/>
    <g transform="translate(380,260) scale(0.95)">
    <line x1="-11" y1="52" x2="-11" y2="82" stroke="#1565C0" stroke-width="13" stroke-linecap="round"/>
    <line x1="11" y1="52" x2="11" y2="82" stroke="#1565C0" stroke-width="13" stroke-linecap="round"/>
    <ellipse cx="-11" cy="86" rx="11" ry="5" fill="#37474F" stroke="#1A1A2E" stroke-width="1.5"/>
    <ellipse cx="11" cy="86" rx="11" ry="5" fill="#37474F" stroke="#1A1A2E" stroke-width="1.5"/>
    <path d="M-24 18 Q0 12 24 18 L26 55 Q0 62 -26 55 Z" fill="#26C6DA" stroke="#1A1A2E" stroke-width="2"/>
    <path d="M-24 22 Q-42 35 -46 52" fill="none" stroke="#FFCC80" stroke-width="11" stroke-linecap="round"/>
    <path d="M24 22 Q42 35 46 52" fill="none" stroke="#FFCC80" stroke-width="11" stroke-linecap="round"/>
    <circle cx="0" cy="-8" r="30" fill="#FFCC80" stroke="#1A1A2E" stroke-width="2"/>
    <ellipse cx="0" cy="5" rx="18" ry="8" fill="#F0A860" opacity="0.3"/>
    <path d="M-28 0 Q-22 -38 0 -42 Q22 -38 28 0 Q18 -28 0 -32 Q-18 -28 -28 0" fill="#3E2723" stroke="#1A1A2E" stroke-width="1.5"/>
    <ellipse cx="-12" cy="-5" rx="9" ry="11" fill="#FFFFFF" stroke="#1A1A2E" stroke-width="1.5"/>
  <circle cx="-13" cy="-3" r="5.5" fill="#1A1A2E"/>
  <circle cx="-14" cy="-6" r="2" fill="#FFFFFF"/><ellipse cx="12" cy="-5" rx="9" ry="11" fill="#FFFFFF" stroke="#1A1A2E" stroke-width="1.5"/>
  <circle cx="13" cy="-3" r="5.5" fill="#1A1A2E"/>
  <circle cx="14" cy="-6" r="2" fill="#FFFFFF"/>
    <path d="M-8 10 Q0 18 8 10" fill="none" stroke="#1A1A2E" stroke-width="2" stroke-linecap="round"/>
  </g>
    <path d="M340 280 L360 300" fill="none" stroke="#FFCC80" stroke-width="8" stroke-linecap="round"/>
    <rect x="350" y="295" width="40" height="25" rx="2" fill="#FFFFFF" stroke="#1A1A2E" stroke-width="1.5"/>
    <line x1="360" y1="305" x2="380" y2="305" stroke="#1565C0" stroke-width="1.5"/>
    <line x1="360" y1="312" x2="375" y2="312" stroke="#1565C0" stroke-width="1.5"/>
    <rect x="550" y="120" width="100" height="80" rx="4" fill="#81D4FA" stroke="#1A1A2E" stroke-width="2"/>
    <circle cx="600" cy="60" r="25" fill="#FFD54F" stroke="#1A1A2E" stroke-width="2"/>
  <circle cx="600" cy="60" r="17" fill="#FFEB3B" opacity="0.6"/>
  <rect x="28" y="28" width="118" height="42" rx="21" fill="rgba(255,255,255,0.92)" stroke="#1A1A2E" stroke-width="1"/>
  <text x="87" y="56" text-anchor="middle" font-family="Arial,Helvetica,sans-serif" font-size="22" font-weight="700" fill="#00838F">Unit 14</text>
</svg>
