<?xml version="1.0" encoding="UTF-8"?>
<svg xmlns="http://www.w3.org/2000/svg" viewBox="0 0 850 500" width="850" height="500" role="img" aria-label="Unit 3: My Week">
  <defs><linearGradient id="sky" x1="0" y1="0" x2="0" y2="1"><stop offset="0%" stop-color="#87CEEB"/><stop offset="100%" stop-color="#B3E5FC"/></linearGradient></defs>
  <rect width="850" height="500" fill="url(#sky)"/><rect y="360" width="850" height="140" fill="#7CB342"/>
  <ellipse cx="120" cy="390" rx="90" ry="18" fill="#558B2F" opacity="0.5"/>
  <ellipse cx="420" cy="380" rx="120" ry="22" fill="#558B2F" opacity="0.4"/>
  <ellipse cx="720" cy="395" rx="100" ry="20" fill="#558B2F" opacity="0.5"/>
    <rect x="280" y="120" width="290" height="220" rx="12" fill="#FFFFFF" stroke="#1A1A2E" stroke-width="2"/>
    <rect x="280" y="120" width="290" height="40" rx="12" fill="#7E57C2" stroke="#1A1A2E" stroke-width="2"/>
    <text x="425" y="148" text-anchor="middle" font-family="Arial,sans-serif" font-size="18" font-weight="700" fill="#FFFFFF">MY WEEK</text>
    <circle cx="320" cy="190" r="18" fill="#EF5350" stroke="#1A1A2E" stroke-width="1.5"/>
      <text x="320" y="195" text-anchor="middle" font-family="Arial,sans-serif" font-size="14" font-weight="700" fill="#FFF">M</text><circle cx="385" cy="190" r="18" fill="#FF7043" stroke="#1A1A2E" stroke-width="1.5"/>
      <text x="385" y="195" text-anchor="middle" font-family="Arial,sans-serif" font-size="14" font-weight="700" fill="#FFF">T</text><circle cx="450" cy="190" r="18" fill="#FFD54F" stroke="#1A1A2E" stroke-width="1.5"/>
      <text x="450" y="195" text-anchor="middle" font-family="Arial,sans-serif" font-size="14" font-weight="700" fill="#FFF">W</text><circle cx="515" cy="190" r="18" fill="#66BB6A" stroke="#1A1A2E" stroke-width="1.5"/>
      <text x="515" y="195" text-anchor="middle" font-family="Arial,sans-serif" font-size="14" font-weight="700" fill="#FFF">T</text><circle cx="320" cy="245" r="18" fill="#42A5F5" stroke="#1A1A2E" stroke-width="1.5"/>
      <text x="320" y="250" text-anchor="middle" font-family="Arial,sans-serif" font-size="14" font-weight="700" fill="#FFF">F</text><circle cx="385" cy="245" r="18" fill="#AB47BC" stroke="#1A1A2E" stroke-width="1.5"/>
      <text x="385" y="250" text-anchor="middle" font-family="Arial,sans-serif" font-size="14" font-weight="700" fill="#FFF">S</text><circle cx="450" cy="245" r="18" fill="#EC407A" stroke="#1A1A2E" stroke-width="1.5"/>
      <text x="450" y="250" text-anchor="middle" font-family="Arial,sans-serif" font-size="14" font-weight="700" fill="#FFF">S</text>
    <g transform="translate(620,310) scale(1)">
    <line x1="-10" y1="52" x2="-10" y2="80" stroke="#FFCC80" stroke-width="10" stroke-linecap="round"/>
    <line x1="10" y1="52" x2="10" y2="80" stroke="#FFCC80" stroke-width="10" stroke-linecap="round"/>
    <ellipse cx="-10" cy="84" rx="10" ry="5" fill="#EF5350" stroke="#1A1A2E" stroke-width="1.5"/>
    <ellipse cx="10" cy="84" rx="10" ry="5" fill="#EF5350" stroke="#1A1A2E" stroke-width="1.5"/>
    <path d="M-22 18 Q0 14 22 18 L24 70 Q0 78 -24 70 Z" fill="#7E57C2" stroke="#1A1A2E" stroke-width="2"/>
    <path d="M-22 22 Q-38 38 -42 55" fill="none" stroke="#FFCC80" stroke-width="10" stroke-linecap="round"/>
    <path d="M22 22 Q38 38 42 55" fill="none" stroke="#FFCC80" stroke-width="10" stroke-linecap="round"/>
    <circle cx="0" cy="-8" r="28" fill="#FFCC80" stroke="#1A1A2E" stroke-width="2"/>
    <path d="M-30 5 Q-28 -32 0 -38 Q28 -32 30 5 L25 30 Q0 35 -25 30 Z" fill="#5D4037" stroke="#1A1A2E" stroke-width="1.5"/>
    <ellipse cx="-11" cy="-5" rx="9" ry="11" fill="#FFFFFF" stroke="#1A1A2E" stroke-width="1.5"/>
  <circle cx="-12" cy="-3" r="5.5" fill="#1A1A2E"/>
  <circle cx="-13" cy="-6" r="2" fill="#FFFFFF"/><ellipse cx="11" cy="-5" rx="9" ry="11" fill="#FFFFFF" stroke="#1A1A2E" stroke-width="1.5"/>
  <circle cx="12" cy="-3" r="5.5" fill="#1A1A2E"/>
  <circle cx="13" cy="-6" r="2" fill="#FFFFFF"/>
    <path d="M-8 10 Q0 18 8 10" fill="none" stroke="#1A1A2E" stroke-width="2" stroke-linecap="round"/>
  </g>
    <path d="M580 250 L540 200" fill="none" stroke="#FFCC80" stroke-width="8" stroke-linecap="round"/>
  <rect x="28" y="28" width="118" height="42" rx="21" fill="rgba(255,255,255,0.92)" stroke="#1A1A2E" stroke-width="1"/>
  <text x="87" y="56" text-anchor="middle" font-family="Arial,Helvetica,sans-serif" font-size="22" font-weight="700" fill="#5E35B1">Unit 3</text>
</svg>
