<?xml version="1.0" encoding="UTF-8"?>
<svg xmlns="http://www.w3.org/2000/svg" viewBox="0 0 850 500" width="850" height="500" role="img" aria-label="Unit 1: My Friends">
  <defs><linearGradient id="sky" x1="0" y1="0" x2="0" y2="1"><stop offset="0%" stop-color="#81D4FA"/><stop offset="100%" stop-color="#B3E5FC"/></linearGradient></defs>
  <rect width="850" height="500" fill="url(#sky)"/><circle cx="720" cy="80" r="45" fill="#FFD54F" stroke="#1A1A2E" stroke-width="2"/>
  <circle cx="720" cy="80" r="37" fill="#FFEB3B" opacity="0.6"/><g transform="translate(150,60) scale(1)">
    <ellipse cx="0" cy="0" rx="35" ry="18" fill="#FFFFFF" stroke="#1A1A2E" stroke-width="1.5"/>
    <ellipse cx="-25" cy="5" rx="22" ry="14" fill="#FFFFFF" stroke="#1A1A2E" stroke-width="1.5"/>
    <ellipse cx="25" cy="5" rx="22" ry="14" fill="#FFFFFF" stroke="#1A1A2E" stroke-width="1.5"/>
  </g><g transform="translate(400,40) scale(0.8)">
    <ellipse cx="0" cy="0" rx="35" ry="18" fill="#FFFFFF" stroke="#1A1A2E" stroke-width="1.5"/>
    <ellipse cx="-25" cy="5" rx="22" ry="14" fill="#FFFFFF" stroke="#1A1A2E" stroke-width="1.5"/>
    <ellipse cx="25" cy="5" rx="22" ry="14" fill="#FFFFFF" stroke="#1A1A2E" stroke-width="1.5"/>
  </g><rect y="350" width="850" height="150" fill="#7CB342"/>
  <ellipse cx="120" cy="380" rx="90" ry="18" fill="#558B2F" opacity="0.5"/>
  <ellipse cx="420" cy="370" rx="120" ry="22" fill="#558B2F" opacity="0.4"/>
  <ellipse cx="720" cy="385" rx="100" ry="20" fill="#558B2F" opacity="0.5"/>
    <g transform="translate(680,280)">
    <rect x="-80" y="-20" width="160" height="90" fill="#ECEFF1" stroke="#1A1A2E" stroke-width="2"/>
    <polygon points="-90,-20 0,-70 90,-20" fill="#EF5350" stroke="#1A1A2E" stroke-width="2"/>
    <rect x="-25" y="10" width="50" height="60" fill="#8D6E63" stroke="#1A1A2E" stroke-width="1.5"/>
    <rect x="-60" y="-5" width="30" height="25" fill="#81D4FA" stroke="#1A1A2E" stroke-width="1.5"/>
    <rect x="30" y="-5" width="30" height="25" fill="#81D4FA" stroke="#1A1A2E" stroke-width="1.5"/>
    <rect x="-8" y="-55" width="16" height="25" fill="#FFF" stroke="#1A1A2E" stroke-width="1.5"/>
    <circle cx="0" cy="-42" r="8" fill="#FFD54F" stroke="#1A1A2E" stroke-width="1"/>
  </g>
    <g transform="translate(320,300) scale(1.1)">
    <line x1="-11" y1="52" x2="-11" y2="82" stroke="#1565C0" stroke-width="13" stroke-linecap="round"/>
    <line x1="11" y1="52" x2="11" y2="82" stroke="#1565C0" stroke-width="13" stroke-linecap="round"/>
    <ellipse cx="-11" cy="86" rx="11" ry="5" fill="#37474F" stroke="#1A1A2E" stroke-width="1.5"/>
    <ellipse cx="11" cy="86" rx="11" ry="5" fill="#37474F" stroke="#1A1A2E" stroke-width="1.5"/>
    <path d="M-24 18 Q0 12 24 18 L26 55 Q0 62 -26 55 Z" fill="#42A5F5" stroke="#1A1A2E" stroke-width="2"/>
    <path d="M-24 22 Q-42 35 -46 52" fill="none" stroke="#FFCC80" stroke-width="11" stroke-linecap="round"/>
    <path d="M24 22 Q42 35 46 52" fill="none" stroke="#FFCC80" stroke-width="11" stroke-linecap="round"/>
    <circle cx="0" cy="-8" r="30" fill="#FFCC80" stroke="#1A1A2E" stroke-width="2"/>
    <ellipse cx="0" cy="5" rx="18" ry="8" fill="#F0A860" opacity="0.3"/>
    <path d="M-28 0 Q-22 -38 0 -42 Q22 -38 28 0 Q18 -28 0 -32 Q-18 -28 -28 0" fill="#3E2723" stroke="#1A1A2E" stroke-width="1.5"/>
    <ellipse cx="-12" cy="-5" rx="9" ry="11" fill="#FFFFFF" stroke="#1A1A2E" stroke-width="1.5"/>
  <circle cx="-13" cy="-3" r="5.5" fill="#1A1A2E"/>
  <circle cx="-14" cy="-6" r="2" fill="#FFFFFF"/><ellipse cx="12" cy="-5" rx="9" ry="11" fill="#FFFFFF" stroke="#1A1A2E" stroke-width="1.5"/>
  <circle cx="13" cy="-3" r="5.5" fill="#1A1A2E"/>
  <circle cx="14" cy="-6" r="2" fill="#FFFFFF"/>
    <path d="M-8 10 Q0 18 8 10" fill="none" stroke="#1A1A2E" stroke-width="2" stroke-linecap="round"/>
  </g>
    <g transform="translate(480,300) scale(1.1)">
    <line x1="-11" y1="52" x2="-11" y2="82" stroke="#1565C0" stroke-width="13" stroke-linecap="round"/>
    <line x1="11" y1="52" x2="11" y2="82" stroke="#1565C0" stroke-width="13" stroke-linecap="round"/>
    <ellipse cx="-11" cy="86" rx="11" ry="5" fill="#37474F" stroke="#1A1A2E" stroke-width="1.5"/>
    <ellipse cx="11" cy="86" rx="11" ry="5" fill="#37474F" stroke="#1A1A2E" stroke-width="1.5"/>
    <path d="M-24 18 Q0 12 24 18 L26 55 Q0 62 -26 55 Z" fill="#66BB6A" stroke="#1A1A2E" stroke-width="2"/>
    <path d="M-24 22 Q-42 35 -46 52" fill="none" stroke="#FFCC80" stroke-width="11" stroke-linecap="round"/>
    <path d="M24 22 Q42 35 46 52" fill="none" stroke="#FFCC80" stroke-width="11" stroke-linecap="round"/>
    <circle cx="0" cy="-8" r="30" fill="#FFCC80" stroke="#1A1A2E" stroke-width="2"/>
    <ellipse cx="0" cy="5" rx="18" ry="8" fill="#F0A860" opacity="0.3"/>
    <path d="M-28 5 Q-26 -25 0 -30 Q26 -25 28 5 Q15 -12 0 -15 Q-15 -12 -28 5" fill="#3E2723" stroke="#1A1A2E" stroke-width="1.5"/>
    <ellipse cx="-12" cy="-5" rx="9" ry="11" fill="#FFFFFF" stroke="#1A1A2E" stroke-width="1.5"/>
  <circle cx="-13" cy="-3" r="5.5" fill="#1A1A2E"/>
  <circle cx="-14" cy="-6" r="2" fill="#FFFFFF"/><ellipse cx="12" cy="-5" rx="9" ry="11" fill="#FFFFFF" stroke="#1A1A2E" stroke-width="1.5"/>
  <circle cx="13" cy="-3" r="5.5" fill="#1A1A2E"/>
  <circle cx="14" cy="-6" r="2" fill="#FFFFFF"/>
    <path d="M-8 10 Q0 18 8 10" fill="none" stroke="#1A1A2E" stroke-width="2" stroke-linecap="round"/>
  </g>
    <path d="M350 260 Q400 230 450 260" fill="none" stroke="#FFCC80" stroke-width="12" stroke-linecap="round"/>
    <path d="M355 255 Q400 225 445 255" fill="none" stroke="#FFCC80" stroke-width="12" stroke-linecap="round"/>
  <rect x="28" y="28" width="118" height="42" rx="21" fill="rgba(255,255,255,0.92)" stroke="#1A1A2E" stroke-width="1"/>
  <text x="87" y="56" text-anchor="middle" font-family="Arial,Helvetica,sans-serif" font-size="22" font-weight="700" fill="#E53935">Unit 1</text>
</svg>
