<svg xmlns="http://www.w3.org/2000/svg" viewBox="0 0 24 24" fill="none">
  <title>Flame rank shield</title>
  <path d="M12 2 L4 5 V11 C4 16 7.4 20 12 22 Z" fill="#A93226"/>
  <path d="M12 2 L20 5 V11 C20 16 16.6 20 12 22 Z" fill="#C0392B"/>
  <path d="M12 2 L20 5 V11 C20 16 16.6 20 12 22 C7.4 20 4 16 4 11 V5 Z" stroke="#0D2B6E" stroke-width="1.2" stroke-linejoin="round"/>
  <path d="M12 7.2 C12 7.2 9.2 10.2 9.2 12.4 C9.2 14 10.4 15.2 12 15.2 C13.6 15.2 14.8 14 14.8 12.4 C14.8 10.2 12 7.2 12 7.2 Z" fill="#F57F17"/>
  <path d="M12 9.4 C12 9.4 10.6 11.2 10.6 12.4 C10.6 13.3 11.2 14 12 14 C12.8 14 13.4 13.3 13.4 12.4 C13.4 11.2 12 9.4 12 9.4 Z" fill="#FFE082"/>
</svg>
