<svg xmlns="http://www.w3.org/2000/svg" viewBox="0 0 24 24" fill="none">
  <title>Emerald rank shield</title>
  <path d="M12 2 L4 5 V11 C4 16 7.4 20 12 22 Z" fill="#0B6B45"/>
  <path d="M12 2 L20 5 V11 C20 16 16.6 20 12 22 Z" fill="#1FA36A"/>
  <path d="M12 2 L20 5 V11 C20 16 16.6 20 12 22 C7.4 20 4 16 4 11 V5 Z" stroke="#0D2B6E" stroke-width="1.2" stroke-linejoin="round"/>
  <path d="M12 7.8 L15.2 11.2 L12 15.4 L8.8 11.2 Z" fill="#A8E6CF"/>
  <path d="M12 7.8 L15.2 11.2 L12 11.2 Z" fill="#7DCEA0"/>
  <path d="M12 7.8 L8.8 11.2 L12 11.2 Z" fill="#D5F5E3"/>
  <path d="M12 11.2 L15.2 11.2 L12 15.4 Z" fill="#52BE80"/>
  <path d="M12 11.2 L8.8 11.2 L12 15.4 Z" fill="#27AE60"/>
</svg>
