<svg xmlns="http://www.w3.org/2000/svg" viewBox="0 0 24 24" fill="none">
  <title>Legendary rank crest</title>
  <path d="M3.2 10.5 L6.8 8.8 L7.2 13.2 L4.2 14.2 Z" fill="#E4C28E"/>
  <path d="M20.8 10.5 L17.2 8.8 L16.8 13.2 L19.8 14.2 Z" fill="#E4C28E"/>
  <path d="M12 2 L4 5 V11 C4 16 7.4 20 12 22 Z" fill="#0D2B6E"/>
  <path d="M12 2 L20 5 V11 C20 16 16.6 20 12 22 Z" fill="#1A3F9B"/>
  <path d="M12 2 L20 5 V11 C20 16 16.6 20 12 22 C7.4 20 4 16 4 11 V5 Z" stroke="#E4C28E" stroke-width="1.2" stroke-linejoin="round"/>
  <path d="M9.2 6.8 L9.6 5.2 L10.8 6.4 L12 4.8 L13.2 6.4 L14.4 5.2 L14.8 6.8 Z" fill="#FFE082"/>
  <rect x="9.2" y="6.8" width="5.6" height="1" rx="0.2" fill="#E4C28E"/>
  <path d="M12 9.2 L12.8 11.2 L15 11.4 L13.3 12.8 L13.8 14.9 L12 13.8 L10.2 14.9 L10.7 12.8 L9 11.4 L11.2 11.2 Z" fill="#FFFFFF" stroke="#FFE082" stroke-width="0.5" stroke-linejoin="round"/>
</svg>
