<svg xmlns="http://www.w3.org/2000/svg" viewBox="0 0 24 24" fill="none">
  <title>Diamond rank shield</title>
  <path d="M12 2 L4 5 V11 C4 16 7.4 20 12 22 Z" fill="#3B2F7A"/>
  <path d="M12 2 L20 5 V11 C20 16 16.6 20 12 22 Z" fill="#5B4DB0"/>
  <path d="M12 2 L20 5 V11 C20 16 16.6 20 12 22 C7.4 20 4 16 4 11 V5 Z" stroke="#0D2B6E" stroke-width="1.2" stroke-linejoin="round"/>
  <path d="M12 7.5 L15.4 10.2 L12 15.6 L8.6 10.2 Z" fill="#AEEAEE"/>
  <path d="M12 7.5 L15.4 10.2 L12 10.2 Z" fill="#80DEEA"/>
  <path d="M12 7.5 L8.6 10.2 L12 10.2 Z" fill="#E0F7FA"/>
  <path d="M12 10.2 L15.4 10.2 L12 15.6 Z" fill="#4DD0E1"/>
  <path d="M12 10.2 L8.6 10.2 L12 15.6 Z" fill="#26C6DA"/>
</svg>
